# xmcd
# 
# Track frame offsets:
#     150
#     17969
#     39483
#     62902
# 
# Disc length: 1190
# 
# Revision: 1
# Processed by: cddbd v1.5.2PL0 Copyright (c) Steve Scherf et al.
# Submitted via: fre:ac v1.0.17
# 
DISCID=3004a404
DTITLE=WEAVER - くちづけDiamond
DYEAR=0
DGENRE=
TTITLE0=くちづけDiamond  (TVアニメ「山田くんと7人の魔女」OPテーマ)
TTITLE1=Beloved　(映画「ライアの祈り」主題歌)
TTITLE2=Inception 
TTITLE3=Time Piece 
EXTD=
EXTT0=
EXTT1=
EXTT2=
EXTT3=
PLAYORDER=
